<?xml version="1.0" encoding="UTF-8" standalone="no"?>
<!-- Generator: Adobe Illustrator 24.1.0, SVG Export Plug-In . SVG Version: 6.00 Build 0)  -->

<svg
   xmlns:ns="&amp;#38;ns_sfw;"
   xmlns:dc="http://purl.org/dc/elements/1.1/"
   xmlns:cc="http://creativecommons.org/ns#"
   xmlns:rdf="http://www.w3.org/1999/02/22-rdf-syntax-ns#"
   xmlns:svg="http://www.w3.org/2000/svg"
   xmlns="http://www.w3.org/2000/svg"
   xmlns:sodipodi="http://sodipodi.sourceforge.net/DTD/sodipodi-0.dtd"
   xmlns:inkscape="http://www.inkscape.org/namespaces/inkscape"
   version="1.1"
   id="Capa_1"
   x="0px"
   y="0px"
   width="271.559px"
   height="181.984px"
   viewBox="0 0 271.559 181.984"
   enable-background="new 0 0 271.559 181.984"
   xml:space="preserve"
   inkscape:version="0.91 r13725"
   sodipodi:docname="full-cover-small-chip.svg"><defs
     id="defs11" /><sodipodi:namedview
     pagecolor="#ffffff"
     bordercolor="#666666"
     borderopacity="1"
     objecttolerance="10"
     gridtolerance="10"
     guidetolerance="10"
     inkscape:pageopacity="0"
     inkscape:pageshadow="2"
     inkscape:window-width="1388"
     inkscape:window-height="654"
     id="namedview9"
     showgrid="false"
     inkscape:zoom="2.3882152"
     inkscape:cx="125.53339"
     inkscape:cy="87.612206"
     inkscape:window-x="75"
     inkscape:window-y="34"
     inkscape:window-maximized="0"
     inkscape:current-layer="Capa_1" /><metadata
     id="metadata3"><ns:sfw><ns:slices /><ns:sliceSourceBounds
         bottomLeftOrigin="true"
         height="153.638"
         width="242.957"
         x="14.391"
         y="-167.989" /></ns:sfw><rdf:RDF><cc:Work
         rdf:about=""><dc:format>image/svg+xml</dc:format><dc:type
           rdf:resource="http://purl.org/dc/dcmitype/StillImage" /></cc:Work></rdf:RDF></metadata><path
     id="path7"
     style="fill:#ffffff;stroke:#e2007c;stroke-width:0.21641131;stroke-miterlimit:10"
     d="m 70.551384,73.271389 0,-16.96302 c 0,-1.057432 -1.09622,-1.922913 -2.435567,-1.922913 l -26.909794,0 c -1.339347,0 -2.435567,0.865481 -2.435567,1.922913 l 0,16.96302 c 0,1.057432 1.09622,1.922914 2.435567,1.922914 l 26.909794,0 c 1.340207,0 2.435567,-0.865482 2.435567,-1.922914 z M 245.207,167.847 l -218.674,0 c -6.6,0 -12,-5.4 -12,-12 l 0,-129.354 c 0,-6.6 5.4,-12 12,-12 l 218.674,0 c 6.6,0 12,5.4 12,12 l 0,129.354 c 0,6.6 -5.4,12 -12,12 z" /></svg>